<svg width="24" height="24" viewBox="0 0 24 24" fill="none" xmlns="http://www.w3.org/2000/svg">
<path d="M12 3.99994L11.293 3.29294L12 2.58594L12.707 3.29294L12 3.99994ZM13 18.9999C13 19.2652 12.8946 19.5195 12.7071 19.707C12.5195 19.8946 12.2652 19.9999 12 19.9999C11.7348 19.9999 11.4804 19.8946 11.2929 19.707C11.1053 19.5195 11 19.2652 11 18.9999H13ZM5.29297 9.29294L11.293 3.29294L12.707 4.70694L6.70697 10.7069L5.29297 9.29294ZM12.707 3.29294L18.707 9.29294L17.293 10.7069L11.293 4.70694L12.707 3.29294ZM13 3.99994V18.9999H11V3.99994H13Z" fill="black"/>
</svg>
