<svg width="24" height="24" viewBox="0 0 24 24" fill="none" xmlns="http://www.w3.org/2000/svg">
<g clip-path="url(#clip0_184_136)">
<path d="M4.25006 0.300049H19.7499C22.1001 0.300049 24 2.19999 24 4.55011V19.45C24 21.8001 22.1001 23.7001 19.7499 23.7001H4.25006C1.89994 23.7001 0 21.8001 0 19.45V4.55011C0 2.19999 1.89994 0.300049 4.25006 0.300049Z" fill="#001E36"/>
<path d="M8.60009 6.25C8.30009 6.25 8.00009 6.25 7.69015 6.26013C7.38002 6.27006 7.08996 6.27006 6.81996 6.28019C6.54996 6.29012 6.30002 6.29012 6.06002 6.30006C5.82996 6.31 5.67002 6.31 5.49996 6.31C5.43002 6.31 5.40002 6.34994 5.40002 6.42006V16.7101C5.40002 16.8001 5.43996 16.8402 5.52002 16.8402H7.46009C7.53002 16.8301 7.58009 16.7701 7.56996 16.7001V13.4901C7.7599 13.4901 7.89996 13.4901 8.00009 13.5001C8.10002 13.51 8.25996 13.51 8.49996 13.51C9.32009 13.51 10.0701 13.42 10.75 13.1701C11.4 12.9301 11.9601 12.5101 12.36 11.95C12.76 11.39 12.96 10.68 12.96 9.82C12.96 9.37 12.8801 8.94006 12.7301 8.52006C12.5712 8.09217 12.3222 7.7034 12 7.38006C11.6197 7.01062 11.162 6.73047 10.66 6.55994C10.0999 6.34994 9.42002 6.25 8.60009 6.25ZM8.82321 8.21969C9.17946 8.22644 9.52634 8.28869 9.84996 8.41994C10.14 8.53 10.38 8.73006 10.5501 8.98994C10.7096 9.25889 10.7894 9.56763 10.7801 9.88019C10.7801 10.3201 10.68 10.6602 10.47 10.9101C10.2499 11.1601 9.96996 11.3502 9.65009 11.4402C9.27996 11.5602 8.88996 11.62 8.49996 11.62H7.9699C7.8499 11.62 7.72015 11.6101 7.58009 11.6001V8.24012C7.65002 8.23 7.79009 8.22006 7.99015 8.23019C8.18009 8.22006 8.40996 8.22006 8.67002 8.22006C8.72127 8.21881 8.77234 8.21869 8.82321 8.21969ZM17.2101 8.73025C16.5 8.73025 15.91 8.84012 15.4401 9.08012C15.0101 9.28019 14.64 9.60006 14.3901 10C14.1701 10.3701 14.05 10.78 14.05 11.2101C14.0414 11.5639 14.1204 11.9143 14.28 12.2301C14.467 12.5664 14.7267 12.8568 15.0401 13.0801C15.48 13.3809 15.9574 13.623 16.4601 13.8001C16.95 13.99 17.28 14.14 17.4402 14.2699C17.6001 14.4001 17.6802 14.53 17.6802 14.6701C17.6802 14.8501 17.5701 15.0201 17.4101 15.0901C17.2301 15.1801 16.9601 15.2301 16.5801 15.2301C16.1801 15.2301 15.78 15.1801 15.4 15.0801C14.9636 14.9827 14.5452 14.8173 14.16 14.5902C14.13 14.5701 14.1 14.5602 14.07 14.5802C14.04 14.6001 14.0301 14.6401 14.0301 14.6701V16.4101C14.0202 16.4901 14.07 16.5601 14.1401 16.6C14.4644 16.7515 14.8074 16.8591 15.1601 16.9201C15.6101 17.0101 16.06 17.05 16.5199 17.05C17.2399 17.05 17.8401 16.9401 18.33 16.7301C18.78 16.5501 19.17 16.2402 19.45 15.8401C19.7121 15.4467 19.8482 14.9828 19.84 14.5101C19.8498 14.1531 19.7708 13.7992 19.6101 13.4802C19.42 13.1401 19.15 12.8601 18.82 12.6501C18.3372 12.347 17.8203 12.1019 17.28 11.92C17.0388 11.8201 16.8019 11.71 16.57 11.59C16.44 11.5201 16.32 11.4301 16.23 11.32C16.17 11.2399 16.1301 11.1501 16.1301 11.0601C16.1301 10.9701 16.1601 10.8702 16.21 10.7901C16.2801 10.6902 16.39 10.6201 16.5199 10.5901C16.71 10.5402 16.92 10.51 17.1199 10.5199C17.5 10.5199 17.8699 10.57 18.24 10.6501C18.5801 10.72 18.9 10.8301 19.2 10.9902C19.24 11.0101 19.29 11.0101 19.38 10.9902C19.3956 10.9786 19.4083 10.9635 19.417 10.9461C19.4257 10.9287 19.4302 10.9095 19.4301 10.8901V9.26012C19.4301 9.22 19.42 9.18006 19.41 9.14013C19.39 9.10019 19.35 9.06006 19.3101 9.05012C19.0343 8.9374 18.7453 8.86009 18.45 8.82006C18.0394 8.76028 17.625 8.73038 17.2101 8.73025Z" fill="#31A8FF"/>
</g>
<defs>
<clipPath id="clip0_184_136">
<rect width="24" height="24" fill="white"/>
</clipPath>
</defs>
</svg>
