<svg width="24" height="24" viewBox="0 0 24 24" fill="none" xmlns="http://www.w3.org/2000/svg">
<g clip-path="url(#clip0_184_166)">
<mask id="mask0_184_166" style="mask-type:luminance" maskUnits="userSpaceOnUse" x="0" y="0" width="24" height="24">
<path d="M0 0H24V24H0V0Z" fill="white"/>
</mask>
<g mask="url(#mask0_184_166)">
<path d="M18.375 0H5.625C2.51841 0 0 2.51841 0 5.625V18.375C0 21.4816 2.51841 24 5.625 24H18.375C21.4816 24 24 21.4816 24 18.375V5.625C24 2.51841 21.4816 0 18.375 0Z" fill="#F4F2ED"/>
<mask id="mask1_184_166" style="mask-type:luminance" maskUnits="userSpaceOnUse" x="3" y="3" width="18" height="18">
<path d="M3.75 3.75H20.1562V20.1562H3.75V3.75Z" fill="white"/>
</mask>
<g mask="url(#mask1_184_166)">
<path d="M4.73719 4.45753L13.8152 3.78703C14.9303 3.6914 15.2168 3.75581 15.918 4.26562L18.8158 6.30703C19.2937 6.65812 19.4529 6.75375 19.4529 7.13606V18.3322C19.4529 19.0339 19.1981 19.4489 18.3061 19.5123L7.76409 20.1508C7.09472 20.1824 6.77597 20.0868 6.42534 19.6401L4.29141 16.8651C3.90863 16.3544 3.75 15.9721 3.75 15.5252V5.57315C3.75 4.9994 4.00481 4.52099 4.73719 4.45753Z" fill="white"/>
<path fill-rule="evenodd" clip-rule="evenodd" d="M13.8152 3.78731L4.73719 4.45781C4.00481 4.52109 3.75 4.99968 3.75 5.57324V15.5253C3.75 15.972 3.90863 16.3543 4.29141 16.8652L6.42534 19.64C6.77597 20.0867 7.09472 20.1825 7.76409 20.1507L18.3063 19.5125C19.1977 19.449 19.453 19.034 19.453 18.3324V7.13625C19.453 6.77371 19.3099 6.66918 18.8882 6.35981L15.918 4.26562C15.2169 3.75581 14.9303 3.6914 13.8152 3.78703V3.78731ZM8.0025 6.95296C7.14169 7.0109 6.94641 7.02403 6.4575 6.62653L5.21456 5.63784C5.08828 5.50996 5.15175 5.35031 5.47003 5.31843L14.197 4.68074C14.9299 4.61681 15.3115 4.87218 15.5981 5.09531L17.0948 6.17981C17.1588 6.21206 17.318 6.40293 17.1265 6.40293L8.11406 6.94546L8.0025 6.95296ZM6.99891 18.2367V8.73206C6.99891 8.31703 7.12641 8.12549 7.50797 8.09343L17.8594 7.48734C18.2105 7.45574 18.3691 7.67887 18.3691 8.09325V17.5345C18.3691 17.9497 18.3052 18.3007 17.7321 18.3324L7.82644 18.9067C7.25344 18.9382 6.99909 18.7475 6.99909 18.2367H6.99891ZM16.777 9.24168C16.8406 9.52884 16.777 9.8159 16.49 9.84871L16.0125 9.9434V16.9609C15.5979 17.184 15.2163 17.3114 14.8974 17.3114C14.3876 17.3114 14.2603 17.1517 13.8786 16.6737L10.7565 11.7617V16.5141L11.7442 16.7377C11.7442 16.7377 11.7442 17.312 10.9473 17.312L8.75044 17.4394C8.6865 17.3114 8.75044 16.9927 8.97309 16.9292L9.54684 16.77V10.4864L8.75062 10.422C8.68659 10.1348 8.84578 9.72028 9.29203 9.68812L11.6491 9.5295L14.8975 14.505V10.1032L14.0695 10.008C14.0056 9.65643 14.2603 9.40096 14.5786 9.36984L16.777 9.24168Z" fill="black"/>
</g>
</g>
</g>
<defs>
<clipPath id="clip0_184_166">
<rect width="24" height="24" fill="white"/>
</clipPath>
</defs>
</svg>
