<svg width="24" height="24" viewBox="0 0 24 24" fill="none" xmlns="http://www.w3.org/2000/svg">
<path d="M9.87901 2.12104L8.83501 3.16503L10.2675 4.59753L11.7675 6.09753C12.1091 5.92853 12.4883 5.84952 12.869 5.86798C13.2497 5.88644 13.6194 6.00176 13.9431 6.20303C14.2668 6.4043 14.5337 6.68486 14.7187 7.01813C14.9036 7.35141 15.0005 7.72638 15 8.10754C14.9919 8.44767 14.9127 8.78235 14.7675 9.09003L16.3125 10.59C16.7177 10.3559 17.1919 10.2705 17.6533 10.3486C18.1146 10.4266 18.5344 10.6632 18.84 11.0175C19.0536 11.2223 19.2225 11.4691 19.3361 11.7424C19.4496 12.0156 19.5055 12.3094 19.5 12.6053C19.5005 13.1961 19.2701 13.7637 18.858 14.187C18.6507 14.4036 18.4008 14.5749 18.1241 14.6903C17.8474 14.8057 17.5498 14.8626 17.25 14.8575C16.9535 14.8622 16.6591 14.8068 16.3845 14.6947C16.11 14.5825 15.861 14.416 15.6525 14.205C15.2993 13.8968 15.0642 13.4754 14.9876 13.0129C14.911 12.5504 14.9976 12.0757 15.2325 11.67L13.7325 10.125C13.6567 10.1593 13.5791 10.1894 13.5 10.215V15C13.9354 15.1551 14.3125 15.4406 14.58 15.8175C14.853 16.1922 15.0001 16.6439 15 17.1075C15.0059 17.4045 14.9505 17.6996 14.8372 17.9742C14.7239 18.2488 14.5551 18.4971 14.3415 18.7035C13.9331 19.1115 13.3827 19.3456 12.8055 19.3568C12.3885 19.3698 11.9761 19.2659 11.615 19.0567C11.254 18.8476 10.9586 18.5416 10.7625 18.1733C10.5663 17.8051 10.4771 17.3893 10.5049 16.9729C10.5327 16.5566 10.6765 16.1564 10.92 15.8175C11.1875 15.4406 11.5646 15.1551 12 15V10.215C11.5636 10.0617 11.1861 9.77589 10.92 9.39753C10.6461 9.02331 10.4989 8.57132 10.5 8.10754C10.4994 7.76633 10.579 7.42976 10.7325 7.12503L7.80751 4.20003L2.12326 9.87903C1.84451 10.1576 1.62336 10.4883 1.47246 10.8523C1.32155 11.2164 1.24384 11.6066 1.24377 12.0006C1.2437 12.3947 1.32127 12.7849 1.47205 13.149C1.62282 13.5131 1.84385 13.8439 2.12251 14.1225L9.87901 21.879C10.4416 22.4414 11.2045 22.7574 12 22.7574C12.7955 22.7574 13.5584 22.4414 14.121 21.879L21.879 14.121C22.4414 13.5585 22.7574 12.7955 22.7574 12C22.7574 11.2045 22.4414 10.4416 21.879 9.87903L14.121 2.12104C13.5584 1.55862 12.7955 1.24268 12 1.24268C11.2045 1.24268 10.4416 1.55862 9.87901 2.12104Z" fill="#E64A19"/>
</svg>
