<svg width="24" height="24" viewBox="0 0 24 24" fill="none" xmlns="http://www.w3.org/2000/svg">
<path d="M3.52764 21.398L1.64252 0.253418H22.3575L20.4705 21.3948L11.9875 23.7466L3.52764 21.398Z" fill="#1572B6"/>
<path d="M12.0002 21.9491L18.855 20.0486L20.4677 1.98218H12.0002V21.9491Z" fill="#33A9DC"/>
<path d="M12.0002 9.64292H15.4318L15.6688 6.98736H12.0002V4.39404H18.5031L18.4408 5.08986L17.8033 12.2362H12.0002V9.64292Z" fill="white"/>
<path d="M12.0156 16.378L12.0041 16.3813L9.11605 15.6015L8.93137 13.5332H6.32849L6.69168 17.6051L12.0037 19.0795L12.0156 19.0761V16.378Z" fill="#EBEBEB"/>
<path d="M15.2113 12.1265L14.899 15.5993L12.0066 16.3801V19.0782L17.323 17.6048L17.362 17.1667L17.8131 12.1265H15.2113Z" fill="white"/>
<path d="M12.009 4.39404V6.98736H5.745L5.69307 6.40461L5.57494 5.08986L5.51288 4.39404H12.009ZM12.0002 9.64329V12.2366H9.1485L9.09657 11.6539L8.97825 10.3391L8.91638 9.64329H12.0002Z" fill="#EBEBEB"/>
</svg>
