<svg width="24" height="24" viewBox="0 0 24 24" fill="none" xmlns="http://www.w3.org/2000/svg">
<g clip-path="url(#clip0_184_122)">
<path d="M4.25625 0.300049H19.7625C22.1063 0.300049 24.0188 2.1938 24.0188 4.5563V19.4625C24.0188 21.8063 22.125 23.7188 19.7625 23.7188H4.25625C1.89375 23.7 0 21.8063 0 19.4438V4.5563C0 2.1938 1.89375 0.300049 4.25625 0.300049Z" fill="#330000"/>
<path d="M11.6062 14.3062H7.875L7.125 16.6499C7.10625 16.7437 7.03125 16.7999 6.9375 16.7812H5.0625C4.95 16.7812 4.93125 16.7249 4.95 16.5937L8.175 7.33115C8.2125 7.2374 8.23125 7.1249 8.26875 6.99365C8.30625 6.7874 8.325 6.5624 8.325 6.3374C8.30625 6.28115 8.3625 6.24365 8.4 6.2249H10.9875C11.0625 6.2249 11.1 6.2624 11.1187 6.2999L14.775 16.5937C14.8125 16.7062 14.775 16.7624 14.6812 16.7624H12.5812C12.5062 16.7812 12.45 16.7249 12.4125 16.6499L11.6062 14.3062ZM8.45625 12.2624H10.9875C10.9312 12.0562 10.8562 11.7937 10.7625 11.5499C10.6687 11.2874 10.575 10.9874 10.5 10.6874C10.4062 10.3687 10.3125 10.0687 10.2187 9.76865C10.125 9.4499 10.0312 9.16865 9.95625 8.8874C9.88125 8.60615 9.80625 8.34365 9.73125 8.0999H9.7125C9.61875 8.53115 9.50625 8.9624 9.375 9.39365C9.225 9.88115 9.075 10.3687 8.90625 10.8749C8.75625 11.3812 8.60625 11.8499 8.45625 12.2624ZM17.0062 8.00615C16.6687 8.0249 16.35 7.89365 16.125 7.6499C15.9 7.40615 15.7687 7.06865 15.7875 6.73115C15.7687 6.39365 15.9 6.0749 16.1437 5.8499C16.3875 5.6249 16.7062 5.49365 17.025 5.49365C17.4187 5.49365 17.7187 5.60615 17.9437 5.8499C18.1687 6.09365 18.2812 6.4124 18.2812 6.73115C18.3 7.06865 18.1687 7.40615 17.925 7.6499C17.6812 7.89365 17.3437 8.0249 17.0062 8.00615ZM15.8812 16.6874V8.98115C15.8812 8.8874 15.9187 8.8499 16.0125 8.8499H18C18.0937 8.8499 18.1312 8.90615 18.1312 8.98115V16.6874C18.1312 16.7999 18.0937 16.8562 18 16.8562H16.0312C15.9375 16.8374 15.8812 16.7812 15.8812 16.6874Z" fill="#FF9A00"/>
</g>
<defs>
<clipPath id="clip0_184_122">
<rect width="24" height="24" fill="white"/>
</clipPath>
</defs>
</svg>
